# File created by Blade
# Date/Time:  Tue Sep 30 19:35:54 2014
#---------------------------------------------------------
:version 1.10
:name HOM
:units
  mass 1.0
  length 1.000000
  angle deg
:documentation
     Acclaim Skeleton File
:root
   axis xyz
   order TX TY TZ RX RY RZ
   position 0.000000 0.000000 0.000000
   orientation 0 0 0
:bonedata
   begin
      id 1
      name Spine_dum
      direction 0.000000 1.000000 0.000000
      length 3.241213
      axis 0.0 0.0 0.0 xyz
   end
   begin
      id 2
      name LeftUpLeg_dum
      direction 1.000000 0.000000 0.000000
      length 3.434019
      axis 0.0 0.0 0.0 xyz
   end
   begin
      id 3
      name RightUpLeg_dum
      direction -1.000000 0.000000 0.000000
      length 3.434019
      axis 0.0 0.0 0.0 xyz
   end
   begin
      id 4
      name Spine
      direction 0.000000 1.000000 0.000000
      length 0.000000
      axis 0.0 0.0 0.0 xyz
      dof rx ry rz
   end
   begin
      id 5
      name Spine_dum1
      direction 0.000000 1.000000 0.000000
      length 18.382958
      axis 0.0 0.0 0.0 xyz
   end
   begin
      id 6
      name Spine_dum2
      direction 0.000000 1.000000 0.000000
      length 12.828261
      axis 0.0 0.0 0.0 xyz
   end
   begin
      id 7
      name Spine_dum3
      direction 0.000000 1.000000 0.000000
      length 12.828261
      axis 0.0 0.0 0.0 xyz
   end
   begin
      id 8
      name Head
      direction 0.000000 1.000000 0.000000
      length 4.527550
      axis 0.0 0.0 0.0 xyz
      dof rx ry rz
   end
   begin
      id 9
      name LeftShoulder
      direction 1.000000 0.000000 0.000000
      length 7.748055
      axis 0.0 0.0 -90.0 xyz
      dof rx ry rz
   end
   begin
      id 10
      name LeftArm
      direction 1.000000 0.000000 0.000000
      length 10.635614
      axis 0.0 0.0 -90.0 xyz
      dof rx ry rz
   end
   begin
      id 11
      name LeftForeArm
      direction 1.000000 0.000000 0.000000
      length 8.346755
      axis 0.0 0.0 -90.0 xyz
      dof ry rz rx
   end
   begin
      id 12
      name LeftHand
      direction 0.000000 0.000000 0.000000
      length 0.000000
      axis 0.0 0.0 -90.0 xyz
      dof rx ry rz
   end
   begin
      id 13
      name LeftHand_dum1
      direction 0.000000 0.000000 0.000000
      length 0.000000
      axis 0.0 0.0 -90.0 xyz
   end
   begin
      id 14
      name LeftHand_dum2
      direction 1.000000 0.000000 0.000000
      length 3.937000
      axis 0.0 0.0 -90.0 xyz
   end
   begin
      id 15
      name LeftHandThumb1
      direction 0.000000 0.000000 1.000000
      length 3.937000
      axis 0.0 0.0 -90.0 xyz
      dof rx rz ry
   end
   begin
      id 16
      name RightShoulder
      direction -1.000000 0.000000 0.000000
      length 7.748055
      axis 0.0 0.0 90.0 xyz
      dof rx ry rz
   end
   begin
      id 17
      name RightArm
      direction -1.000000 0.000000 0.000000
      length 10.635614
      axis 0.0 0.0 90.0 xyz
      dof rx ry rz
   end
   begin
      id 18
      name RightForeArm
      direction -1.000000 0.000000 0.000000
      length 8.346755
      axis 0.0 0.0 90.0 xyz
      dof ry rz rx
   end
   begin
      id 19
      name RightHand
      direction 0.000000 0.000000 0.000000
      length 0.000000
      axis 0.0 0.0 90.0 xyz
      dof rx ry rz
   end
   begin
      id 20
      name RightHand_dum1
      direction 0.000000 0.000000 0.000000
      length 0.000000
      axis 0.0 0.0 90.0 xyz
   end
   begin
      id 21
      name RightHand_dum2
      direction -1.000000 0.000000 0.000000
      length 3.937000
      axis 0.0 0.0 90.0 xyz
   end
   begin
      id 22
      name RightHandThumb1
      direction 0.000000 0.000000 1.000000
      length 3.937000
      axis 0.0 0.0 90.0 xyz
      dof rx rz ry
   end
   begin
      id 23
      name LeftUpLeg
      direction 0.000000 -1.000000 0.000000
      length 15.713025
      axis 0.0 0.0 0.0 xyz
      dof rx ry rz
   end
   begin
      id 24
      name LeftLeg
      direction 0.000000 -1.000000 0.000000
      length 14.435119
      axis 0.0 0.0 0.0 xyz
      dof rx ry rz
   end
   begin
      id 25
      name LeftFoot
      direction 0.000000 -0.258819 0.965926
      length 4.938895
      axis 15.0 0.0 0.0 xyz
      dof rx ry rz
   end
   begin
      id 26
      name LeftToeBase
      direction 0.000000 0.000000 1.000000
      length 2.952750
      axis 0.0 0.0 0.0 xyz
      dof rx ry rz
   end
   begin
      id 27
      name RightUpLeg
      direction 0.000000 -1.000000 0.000000
      length 15.713025
      axis 0.0 0.0 0.0 xyz
      dof rx ry rz
   end
   begin
      id 28
      name RightLeg
      direction 0.000000 -1.000000 0.000000
      length 14.435119
      axis 0.0 0.0 0.0 xyz
      dof rx ry rz
   end
   begin
      id 29
      name RightFoot
      direction 0.000000 -0.258819 0.965926
      length 4.938895
      axis 15.0 0.0 0.0 xyz
      dof rx ry rz
   end
   begin
      id 30
      name RightToeBase
      direction 0.000000 0.000000 1.000000
      length 2.952750
      axis 0.0 0.0 0.0 xyz
      dof rx ry rz
   end
:hierarchy
   begin
      root Spine_dum LeftUpLeg_dum RightUpLeg_dum
      Spine_dum Spine
      LeftUpLeg_dum LeftUpLeg
      RightUpLeg_dum RightUpLeg
      Spine Spine_dum1 Spine_dum2 Spine_dum3
      Spine_dum1 Head
      Spine_dum2 LeftShoulder
      Spine_dum3 RightShoulder
      LeftShoulder LeftArm
      LeftArm LeftForeArm
      LeftForeArm LeftHand
      LeftHand LeftHand_dum1 LeftHand_dum2
      LeftHand_dum1 LeftHandThumb1
      RightShoulder RightArm
      RightArm RightForeArm
      RightForeArm RightHand
      RightHand RightHand_dum1 RightHand_dum2
      RightHand_dum1 RightHandThumb1
      LeftUpLeg LeftLeg
      LeftLeg LeftFoot
      LeftFoot LeftToeBase
      RightUpLeg RightLeg
      RightLeg RightFoot
      RightFoot RightToeBase
   end

# File created by Blade
# Date/Time:  Tue Sep 23 19:15:59 2014
# Frame Rate: 120.000 fps
#------------------------------------------------------
:FULLY-SPECIFIED
:DEGREES
1156
root 1.283382 33.368100 -5.765682 45.208679 -26.900016 -32.635502
Spine -32.196125 -11.737179 25.616159
Head 5.029352 -5.363021 8.689845
LeftShoulder 8.640891 32.159231 34.871349
LeftArm 92.984113 16.523452 -55.223625
LeftForeArm 6.841597 -0.000000 40.632519
LeftHand 49.219268 -0.000000 -1.918371
LeftHandThumb1 -26.253704 0.000000 33.147579
RightShoulder 0.306281 -46.105161 -14.076033
RightArm 66.971521 -0.705627 68.862643
RightForeArm 38.617365 -0.000000 63.780221
RightHand 7.477140 -0.000000 19.500506
RightHandThumb1 -24.326973 -0.000000 -32.862282
LeftUpLeg -38.090568 13.927998 20.011104
LeftLeg 27.542048 -0.000000 -0.000000
LeftFoot -16.010693 2.357330 1.565493
LeftToeBase 3.740888 -0.000000 -0.000000
RightUpLeg -153.693955 -13.394305 25.220998
RightLeg 123.860928 -0.000000 -0.000000
RightFoot 39.465492 -19.947650 11.407397
RightToeBase 44.355307 -0.000000 -0.000000
1157
root 1.285528 33.360825 -5.751644 45.194786 -26.956192 -32.448606
Spine -32.356872 -11.795100 25.695210
Head 5.030191 -5.119414 8.229731
LeftShoulder 8.741960 32.238175 34.807854
LeftArm 92.925220 16.666482 -55.211108
LeftForeArm 6.452842 -0.000000 40.107772
LeftHand 48.787715 0.000000 -0.717405
LeftHandThumb1 -26.253704 0.000000 33.147579
RightShoulder 0.157661 -46.090879 -14.183088
RightArm 67.032523 -0.935649 69.014839
RightForeArm 38.142026 -0.000000 64.163865
RightHand 7.516248 -0.000000 19.424244
RightHandThumb1 -24.326973 -0.000000 -32.862282
LeftUpLeg -37.964505 13.402276 19.954131
LeftLeg 27.199774 -0.000000 -0.000000
LeftFoot -15.888066 3.300545 2.168490
LeftToeBase 2.097805 -0.000000 -0.000000
RightUpLeg -154.061613 -13.540457 25.089134
RightLeg 123.817817 -0.000000 -0.000000
RightFoot 39.274600 -20.028072 11.348868
RightToeBase 44.343633 -0.000000 -0.000000
1158
root 1.288804 33.347047 -5.737788 45.169499 -27.032485 -32.182946
Spine -32.564905 -11.897625 25.722247
Head 5.036912 -4.865980 7.808510
LeftShoulder 8.878533 32.361854 34.783735
LeftArm 92.896428 16.718374 -55.299166
LeftForeArm 7.247238 -0.000000 39.624264
LeftHand 48.310888 -0.000000 0.551862
LeftHandThumb1 -26.253704 0.000000 33.147579
RightShoulder 0.111969 -45.909806 -14.361888
RightArm 66.905155 -1.206402 69.195523
RightForeArm 37.764539 -0.000000 64.656701
RightHand 7.389469 -0.000000 19.406646
RightHandThumb1 -24.326973 -0.000000 -32.862282
LeftUpLeg -37.853013 12.785130 19.850153
LeftLeg 26.827969 -0.000000 -0.000000
LeftFoot -15.795271 4.139263 2.816898
LeftToeBase 1.593708 -0.000000 -0.000000
RightUpLeg -154.487775 -13.734771 24.831551
RightLeg 123.747655 -0.000000 -0.000000
RightFoot 39.186894 -20.103229 11.224359
RightToeBase 44.333046 -0.000000 -0.000000
1159
root 1.290326 33.329027 -5.722992 45.117975 -27.104444 -31.956929
Spine -32.725897 -12.040181 25.809733
Head 5.035956 -4.559025 7.391996
LeftShoulder 8.944569 32.430088 34.683735
LeftArm 92.872880 16.770511 -55.327552
LeftForeArm 8.150038 -0.000000 39.077718
LeftHand 47.890154 -0.000000 1.681874
LeftHandThumb1 -26.253704 0.000000 33.147579
RightShoulder 0.085237 -45.696958 -14.615180
RightArm 66.785386 -1.590654 69.386363
RightForeArm 37.262532 -0.000000 65.144096
RightHand 7.391767 -0.000000 19.153432
RightHandThumb1 -24.326973 -0.000000 -32.862282
LeftUpLeg -37.699450 12.094032 19.833979
LeftLeg 26.504491 -0.000000 -0.000000
LeftFoot -15.767179 5.098184 3.388912
LeftToeBase 1.595473 -0.000000 -0.000000
RightUpLeg -154.862032 -13.901372 24.605732
RightLeg 123.662655 -0.000000 -0.000000
RightFoot 39.076083 -20.326347 11.070895
RightToeBase 44.316341 -0.000000 -0.000000
1160
root 1.294471 33.305370 -5.711973 45.058300 -27.204957 -31.695547
Spine -32.877350 -12.193233 25.852279
Head 4.981117 -4.222426 7.035213
LeftShoulder 8.986895 32.520686 34.596176
LeftArm 92.959838 16.784757 -55.267026
LeftForeArm 8.916924 0.000000 38.490524
LeftHand 47.635512 -0.000000 2.410734
LeftHandThumb1 -26.253704 0.000000 33.147579
RightShoulder -0.073254 -45.667082 -14.762176
RightArm 66.954480 -1.957503 69.399636
RightForeArm 36.811621 0.000000 65.551072
RightHand 7.441440 -0.000000 18.969848
RightHandThumb1 -24.326973 -0.000000 -32.862282
LeftUpLeg -37.592740 11.387134 19.779221
LeftLeg 26.219296 -0.000000 -0.000000
LeftFoot -15.678451 5.933625 3.970450
LeftToeBase 2.181718 -0.000000 -0.000000
RightUpLeg -155.241635 -14.053619 24.250522
RightLeg 123.579633 -0.000000 -0.000000
RightFoot 38.844577 -20.675534 11.042980
RightToeBase 44.478015 -0.000000 -0.000000
1161
root 1.298304 33.276797 -5.700274 45.012314 -27.325151 -31.455038
Spine -33.026028 -12.344218 25.928333
Head 4.901620 -3.877865 6.633850
LeftShoulder 8.993043 32.563459 34.468101
LeftArm 93.087131 16.775313 -54.993987
LeftForeArm 9.601051 -0.000000 37.905172
LeftHand 47.318339 -0.000000 3.258836
LeftHandThumb1 -26.253704 0.000000 33.147579
RightShoulder -0.154148 -45.555750 -14.974393
RightArm 67.059413 -2.333571 69.410386
RightForeArm 36.386174 0.000000 66.007991
RightHand 7.349912 -0.000000 18.849500
RightHandThumb1 -24.326973 -0.000000 -32.862282
LeftUpLeg -37.506503 10.756166 19.698517
LeftLeg 25.992739 -0.000000 -0.000000
LeftFoot -15.676308 6.825315 4.518563
LeftToeBase 3.236817 -0.000000 -0.000000
RightUpLeg -155.625383 -14.201435 23.896238
RightLeg 123.490052 -0.000000 -0.000000
RightFoot 38.754611 -20.737398 10.861325
RightToeBase 44.535599 -0.000000 -0.000000
1162
root 1.301213 33.245901 -5.688832 44.978762 -27.475894 -31.239079
Spine -33.171668 -12.499658 25.999479
Head 4.857402 -3.506425 6.309294
LeftShoulder 9.047541 32.630757 34.369054
LeftArm 93.215150 16.765565 -54.822686
LeftForeArm 9.654857 -0.000000 37.219754
LeftHand 47.376656 -0.000000 3.312768
LeftHandThumb1 -26.253704 0.000000 33.147579
RightShoulder -0.097201 -45.368150 -15.047245
RightArm 67.036752 -2.537827 69.502067
RightForeArm 35.903979 -0.000000 66.592934
RightHand 7.116805 -0.000000 19.001394
RightHandThumb1 -24.326973 -0.000000 -32.862282
LeftUpLeg -37.445425 10.160237 19.618342
LeftLeg 25.915278 -0.000000 -0.000000
LeftFoot -15.749637 7.674453 5.351537
LeftToeBase 0.793549 -0.000000 -0.000000
RightUpLeg -155.965597 -14.290684 23.556384
RightLeg 123.398600 -0.000000 -0.000000
RightFoot 38.598393 -20.743771 10.687234
RightToeBase 44.554815 -0.000000 -0.000000
1163
root 1.306399 33.213749 -5.684663 45.011693 -27.716572 -31.085526
Spine -33.296151 -12.567822 26.035824
Head 4.809082 -3.118367 6.056665
LeftShoulder 9.067155 32.707195 34.251297
LeftArm 93.476166 16.629282 -54.286966
LeftForeArm 9.462342 -0.000000 36.491613
LeftHand 47.471331 -0.000000 3.390574
LeftHandThumb1 -26.253704 0.000000 33.147579
RightShoulder -0.161055 -45.317905 -15.178666
RightArm 67.290734 -2.886336 69.506043
RightForeArm 35.326798 0.000000 66.939770
RightHand 6.965109 -0.000000 18.952506
RightHandThumb1 -24.326973 -0.000000 -32.862282
LeftUpLeg -37.455911 9.736476 19.503241
LeftLeg 25.939539 -0.000000 -0.000000
LeftFoot -15.842607 8.487883 5.836937
LeftToeBase 0.591626 -0.000000 -0.000000
RightUpLeg -156.284582 -14.206793 23.101198
RightLeg 123.255532 -0.000000 -0.000000
RightFoot 38.494669 -20.993002 10.671526
RightToeBase 44.696146 -0.000000 -0.000000
1164
root 1.310033 33.180592 -5.675872 44.986056 -27.886999 -30.954808
Spine -33.365159 -12.721796 26.164034
Head 4.707590 -2.649040 5.795466
LeftShoulder 9.062593 32.770687 34.110872
LeftArm 93.668217 16.587376 -53.993353
LeftForeArm 9.175578 0.000000 35.754217
LeftHand 47.428449 0.000000 3.393892
LeftHandThumb1 -26.253704 0.000000 33.147579
RightShoulder -0.228339 -45.128816 -15.346958
RightArm 67.443333 -3.331028 69.482595
RightForeArm 34.927092 0.000000 67.265564
RightHand 6.870281 -0.000000 18.812233
RightHandThumb1 -24.326973 -0.000000 -32.862282
LeftUpLeg -37.475880 9.296076 19.449654
LeftLeg 26.083930 -0.000000 -0.000000
LeftFoot -15.880870 9.162464 6.249576
LeftToeBase 2.035405 -0.000000 -0.000000
RightUpLeg -156.525198 -14.160308 22.807788
RightLeg 123.155989 -0.000000 -0.000000
RightFoot 38.298809 -21.157630 10.656959
RightToeBase 44.614910 -0.000000 -0.000000
1165
root 1.313331 33.149280 -5.667893 44.982167 -28.112275 -30.897227
Spine -33.418214 -12.809488 26.294232
Head 4.754840 -2.182530 5.555661
LeftShoulder 9.270151 32.987308 34.147447
LeftArm 93.805833 16.372269 -53.685101
LeftForeArm 9.130345 0.000000 35.264466
LeftHand 47.427880 -0.000000 3.216151
LeftHandThumb1 -26.253704 0.000000 33.147579
RightShoulder -0.188344 -44.951042 -15.555644
RightArm 67.563320 -3.727339 69.509543
RightForeArm 34.483876 0.000000 67.541866
RightHand 6.855713 -0.000000 18.690051
RightHandThumb1 -24.326973 -0.000000 -32.862282
LeftUpLeg -37.489107 8.964958 19.408496
LeftLeg 26.293221 -0.000000 -0.000000
LeftFoot -15.976939 9.788643 6.657124
LeftToeBase 2.626671 -0.000000 -0.000000
RightUpLeg -156.722387 -13.985843 22.500386
RightLeg 123.047121 -0.000000 -0.000000
RightFoot 38.177145 -21.406705 10.666356
RightToeBase 44.660275 -0.000000 -0.000000
1166
root 1.316637 33.118564 -5.660446 44.942555 -28.356942 -30.810569
Spine -33.450410 -12.928120 26.359480
Head 4.809557 -1.765276 5.415412
LeftShoulder 9.186199 33.089701 33.862765
LeftArm 94.129734 16.305059 -53.243024
LeftForeArm 8.713640 0.000000 34.328141
LeftHand 47.830296 0.000000 2.531588
LeftHandThumb1 -26.253704 0.000000 33.147579
RightShoulder -0.144644 -44.909091 -15.701389
RightArm 67.761276 -4.072328 69.583046
RightForeArm 34.032623 -0.000000 67.815126
RightHand 6.863944 -0.000000 18.525469
RightHandThumb1 -24.326973 -0.000000 -32.862282
LeftUpLeg -37.526569 8.670371 19.339815
LeftLeg 26.573217 -0.000000 -0.000000
LeftFoot -16.042087 10.283101 6.965599
LeftToeBase 2.535407 -0.000000 -0.000000
RightUpLeg -156.896825 -13.767909 22.216522
RightLeg 122.946649 -0.000000 -0.000000
RightFoot 38.109406 -21.605651 10.595390
RightToeBase 44.653387 -0.000000 -0.000000
